<?xml version="1.0" encoding="UTF-8"?>
<svg width="458px" height="159px" viewBox="0 0 458 159" version="1.1" xmlns="http://www.w3.org/2000/svg" xmlns:xlink="http://www.w3.org/1999/xlink">
    <!-- Generator: Sketch 40.3 (33839) - http://www.bohemiancoding.com/sketch -->
    <title>Untitled 2</title>
    <desc>Created with Sketch.</desc>
    <defs></defs>
    <g id="Page-1" stroke="none" stroke-width="1" fill="none" fill-rule="evenodd">
        <g id="transparent-letters-light">
            <g id="Final">
                <g id="transparent-letters-light">
                    <g id="letters">
                        <g id="Path" transform="translate(171.000000, 0.000000)">
                            <g id="path-1-link" fill="#000000">
                                <path d="M78.797267,84.9577996 C82.15459,91.0129722 83.833227,97.6375913 83.833227,104.831856 L83.833227,157.80599 C83.833227,158.348653 83.393571,158.788569 82.863317,158.788569 L66.277997,158.788569 C65.742331,158.788569 65.308088,158.346367 65.308088,157.811997 L65.308088,139.364152 L65.308088,104.831856 C65.308088,101.714341 64.708575,98.7767272 63.509531,96.0189259 C62.310487,93.2611245 60.661826,90.8330967 58.563499,88.7347695 C56.465172,86.6364424 54.037144,84.9877815 51.279343,83.7887375 C48.521541,82.5896934 45.583927,81.9901804 42.466413,81.9901804 C39.348898,81.9901804 36.381309,82.5896934 33.563555,83.7887375 C30.745802,84.9877815 28.317774,86.6364424 26.279399,88.7347695 C24.241024,90.8330967 22.622339,93.2611245 21.423295,96.0189259 C20.224251,98.7767272 19.624738,101.714341 19.624738,104.831856 L19.624738,139.364152 L19.624738,157.811997 C19.624738,158.351343 19.185082,158.788569 18.654828,158.788569 L2.069508,158.788569 C1.533842,158.788569 1.099599,158.354248 1.099599,157.80599 L1.099599,104.831856 L0.657254,32.4436406 C0.657254,32.4436406 1.07628,21.549457 6.422112,15.0280429 C11.681685,6.49789977 18.193053,0.927071807 18.193053,0.927071807 C18.98375,0.203132938 19.624738,0.484461589 19.624738,1.56198096 L19.624738,70.2995591 C22.862157,68.1412798 26.429259,66.4626433 30.326152,65.2635992 C34.223046,64.0645551 38.269759,63.4650421 42.466413,63.4650421 C46.663067,63.4650421 50.70978,64.0645551 54.606673,65.2635992 C58.503567,66.4626433 62.070669,68.1412798 65.308088,70.2995591 C70.943595,74.0165957 75.439943,78.902627 78.797267,84.9577996 L78.797267,84.9577996 Z" id="path-1"></path>
                            </g>
                            <g id="path-1-link" fill="#001442">
                                <path d="M78.797267,84.9577996 C82.15459,91.0129722 83.833227,97.6375913 83.833227,104.831856 L83.833227,157.80599 C83.833227,158.348653 83.393571,158.788569 82.863317,158.788569 L66.277997,158.788569 C65.742331,158.788569 65.308088,158.346367 65.308088,157.811997 L65.308088,139.364152 L65.308088,104.831856 C65.308088,101.714341 64.708575,98.7767272 63.509531,96.0189259 C62.310487,93.2611245 60.661826,90.8330967 58.563499,88.7347695 C56.465172,86.6364424 54.037144,84.9877815 51.279343,83.7887375 C48.521541,82.5896934 45.583927,81.9901804 42.466413,81.9901804 C39.348898,81.9901804 36.381309,82.5896934 33.563555,83.7887375 C30.745802,84.9877815 28.317774,86.6364424 26.279399,88.7347695 C24.241024,90.8330967 22.622339,93.2611245 21.423295,96.0189259 C20.224251,98.7767272 19.624738,101.714341 19.624738,104.831856 L19.624738,139.364152 L19.624738,157.811997 C19.624738,158.351343 19.185082,158.788569 18.654828,158.788569 L2.069508,158.788569 C1.533842,158.788569 1.099599,158.354248 1.099599,157.80599 L1.099599,104.831856 L0.657254,32.4436406 C0.657254,32.4436406 1.07628,21.549457 6.422112,15.0280429 C11.681685,6.49789977 18.193053,0.927071807 18.193053,0.927071807 C18.98375,0.203132938 19.624738,0.484461589 19.624738,1.56198096 L19.624738,70.2995591 C22.862157,68.1412798 26.429259,66.4626433 30.326152,65.2635992 C34.223046,64.0645551 38.269759,63.4650421 42.466413,63.4650421 C46.663067,63.4650421 50.70978,64.0645551 54.606673,65.2635992 C58.503567,66.4626433 62.070669,68.1412798 65.308088,70.2995591 C70.943595,74.0165957 75.439943,78.902627 78.797267,84.9577996 L78.797267,84.9577996 Z" id="path-1"></path>
                            </g>
                        </g>
                        <g id="Mask" transform="translate(272.000000, 63.000000)">
                            <g id="path-3-link" fill="#000000">
                                <path d="M47.891727,0.1442886 C54.48647,0.1442886 60.661454,1.3732903 66.416866,3.8313307 C72.172277,6.289371 77.208187,9.6766197 81.524745,13.9931784 C85.841304,18.309737 89.228553,23.3456466 91.686593,29.1010581 C94.144634,34.8564697 95.373635,41.031454 95.373635,47.626196 C95.373635,54.220939 94.144634,60.395923 91.686593,66.151335 C89.228553,71.906746 85.841304,76.942656 81.524745,81.259214 C77.208187,85.575773 72.172277,88.963022 66.416866,91.421062 C60.661454,93.879102 54.48647,95.108104 47.891727,95.108104 C41.296985,95.108104 35.122001,93.879102 29.366589,91.421062 C23.611178,88.963022 18.575268,85.575773 14.258709,81.259214 C9.942151,76.942656 6.554902,71.906746 4.096862,66.151335 C1.638821,60.395923 0.40982,54.220939 0.40982,47.626196 C0.40982,41.031454 1.638821,34.8564697 4.096862,29.1010581 C6.554902,23.3456466 9.942151,18.309737 14.258709,13.9931784 C18.575268,9.6766197 23.611178,6.289371 29.366589,3.8313307 C35.122001,1.3732903 41.296985,0.1442886 47.891727,0.1442886 L47.891727,0.1442886 Z M47.891727,76.582966 C51.848573,76.582966 55.595529,75.833575 59.132709,74.33477 C62.669889,72.835964 65.757382,70.767644 68.395279,68.129747 C71.033176,65.491851 73.101496,62.404358 74.600301,58.867178 C76.099106,55.329998 76.848497,51.583042 76.848497,47.626196 C76.848497,43.669351 76.099106,39.922394 74.600301,36.3852144 C73.101496,32.8480344 71.033176,29.7605422 68.395279,27.1226453 C65.757382,24.4847483 62.669889,22.4164283 59.132709,20.9176232 C55.595529,19.4188182 51.848573,18.6694269 47.891727,18.6694269 C43.934882,18.6694269 40.187926,19.4188182 36.650745,20.9176232 C33.113565,22.4164283 30.026073,24.4847483 27.388176,27.1226453 C24.750279,29.7605422 22.651984,32.8480344 21.093226,36.3852144 C19.534469,39.922394 18.755102,43.669351 18.755102,47.626196 C18.755102,51.583042 19.534469,55.329998 21.093226,58.867178 C22.651984,62.404358 24.750279,65.491851 27.388176,68.129747 C30.026073,70.767644 33.113565,72.835964 36.650745,74.33477 C40.187926,75.833575 43.934882,76.582966 47.891727,76.582966 L47.891727,76.582966 Z" id="path-3"></path>
                            </g>
                            <g id="path-3-link" fill="#001442">
                                <path d="M47.891727,0.1442886 C54.48647,0.1442886 60.661454,1.3732903 66.416866,3.8313307 C72.172277,6.289371 77.208187,9.6766197 81.524745,13.9931784 C85.841304,18.309737 89.228553,23.3456466 91.686593,29.1010581 C94.144634,34.8564697 95.373635,41.031454 95.373635,47.626196 C95.373635,54.220939 94.144634,60.395923 91.686593,66.151335 C89.228553,71.906746 85.841304,76.942656 81.524745,81.259214 C77.208187,85.575773 72.172277,88.963022 66.416866,91.421062 C60.661454,93.879102 54.48647,95.108104 47.891727,95.108104 C41.296985,95.108104 35.122001,93.879102 29.366589,91.421062 C23.611178,88.963022 18.575268,85.575773 14.258709,81.259214 C9.942151,76.942656 6.554902,71.906746 4.096862,66.151335 C1.638821,60.395923 0.40982,54.220939 0.40982,47.626196 C0.40982,41.031454 1.638821,34.8564697 4.096862,29.1010581 C6.554902,23.3456466 9.942151,18.309737 14.258709,13.9931784 C18.575268,9.6766197 23.611178,6.289371 29.366589,3.8313307 C35.122001,1.3732903 41.296985,0.1442886 47.891727,0.1442886 L47.891727,0.1442886 Z M47.891727,76.582966 C51.848573,76.582966 55.595529,75.833575 59.132709,74.33477 C62.669889,72.835964 65.757382,70.767644 68.395279,68.129747 C71.033176,65.491851 73.101496,62.404358 74.600301,58.867178 C76.099106,55.329998 76.848497,51.583042 76.848497,47.626196 C76.848497,43.669351 76.099106,39.922394 74.600301,36.3852144 C73.101496,32.8480344 71.033176,29.7605422 68.395279,27.1226453 C65.757382,24.4847483 62.669889,22.4164283 59.132709,20.9176232 C55.595529,19.4188182 51.848573,18.6694269 47.891727,18.6694269 C43.934882,18.6694269 40.187926,19.4188182 36.650745,20.9176232 C33.113565,22.4164283 30.026073,24.4847483 27.388176,27.1226453 C24.750279,29.7605422 22.651984,32.8480344 21.093226,36.3852144 C19.534469,39.922394 18.755102,43.669351 18.755102,47.626196 C18.755102,51.583042 19.534469,55.329998 21.093226,58.867178 C22.651984,62.404358 24.750279,65.491851 27.388176,68.129747 C30.026073,70.767644 33.113565,72.835964 36.650745,74.33477 C40.187926,75.833575 43.934882,76.582966 47.891727,76.582966 L47.891727,76.582966 Z" id="path-3"></path>
                            </g>
                        </g>
                        <path d="M442.422004,81.9901804 L406.810573,140.506918 L425.547044,140.761148 C434.509897,140.882762 446.773359,146.258654 452.942538,152.773062 L456.506037,156.535975 C457.675012,157.770366 457.245099,158.772809 455.534391,158.775008 L395.479663,158.8522 L374.880424,158.774736 C374.337282,158.772694 374.123317,158.406205 374.413287,157.938807 L385.227888,140.506918 L420.839319,81.9901804 L375.854267,81.9901804 C374.773286,81.9901804 374.521315,81.3718669 375.275132,80.6253223 L382.806367,73.1667456 C387.90296,68.1193218 397.849189,63.9460796 405.010038,63.8457144 L432.170228,63.4650421 L452.769468,63.4650421 C453.31261,63.4650421 453.526575,63.8350887 453.244036,64.2970175 L442.422004,81.9901804 L442.422004,81.9901804 Z" id="Path" fill="#263961"></path>
                        <path d="M395.479663,158.788569 L374.871567,158.788569 C374.333316,158.788569 374.125878,158.417269 374.408637,157.958603 L385.227888,140.408607 L419.823811,83.6900803 L431.662732,64.2963874 C431.799379,64.0725419 432.162021,63.4631689 432.162021,63.4631689 C432.162021,63.4631689 432.868328,63.4650421 433.143436,63.4650421 L452.778325,63.4650421 C453.316576,63.4650421 453.525296,63.8378826 453.244961,64.2970743 L442.422004,82.0251995 L407.826081,138.743727 L395.479663,158.788569 L395.479663,158.788569 Z" id="Path" fill="#001442"></path>
                        <path d="M51.0177274,107.013512 C51.2170251,107.490978 51.5410557,107.484586 51.7317244,107.022856 C51.7317244,107.022856 62.0965897,81.9207317 69.0897141,65.0297687 C71.8458262,58.3727459 72.7205369,56.1354463 73.744747,53.6897292 C77.3677004,45.0384575 78.4260268,41.9609613 87.4001929,36.072004 C96.3743591,30.1830467 102.328341,28.3527969 102.328341,28.3527969 C102.816795,28.1837622 103.054738,28.4361454 102.861106,28.9132926 L52.0818389,154.04387 C51.693444,155.000955 51.0623868,154.992376 50.6766697,154.035468 L27.2070367,95.8106857 C26.3390675,93.657379 24.9191861,90.1634843 24.0378764,88.0123052 L15.8947887,68.1359329 L0.0712627861,28.9213353 C-0.123645087,28.4383056 0.0963240447,28.2422634 0.547589106,28.4791184 C0.547589106,28.4791184 21.3899528,39.0922489 25.2108538,47.0932813 C31.2477084,59.3657703 35.188154,69.089948 35.188154,69.089948 L51.0177274,107.013512 L51.0177274,107.013512 Z" id="Whoz" fill="#263961" transform="translate(51.464233, 91.528833) scale(-1, 1) translate(-51.464233, -91.528833) "></path>
                        <path d="M86.8250462,68.6451782 C83.4294987,60.5582419 80.1630261,52.7027078 77.8271627,46.9192307 C73.8514815,54.7766564 68.9120316,66.4125186 67.7476977,69.101383 C67.701819,69.2073334 71.782748,79.179424 77.1666786,92.2413207 C77.7836604,90.7223676 78.4148325,89.1735755 78.8905896,88.0123052 L86.8250462,68.6451782 L86.8250462,68.6451782 Z M86.8250461,68.645178 C94.3820219,86.6430947 102.578317,105.787168 102.578317,105.787168 C102.984036,106.73617 103.640292,106.735763 104.041755,105.781418 L127.259785,50.5882638 C129.264981,45.8215744 134.507679,39.8315525 138.970936,37.206186 L154.351647,28.1589797 C154.797228,27.8968808 155.001667,28.0719406 154.807414,28.5504932 L104.018231,153.671833 C103.629155,154.630338 102.995594,154.635509 102.601781,153.686711 C102.601781,153.686711 87.4892877,117.284893 77.1666786,92.2413207 C77.7836604,90.7223676 78.4148325,89.1735755 78.8905896,88.0123052 L86.8250462,68.6451782 L86.8250461,68.645178 L86.8250461,68.645178 Z" id="Combined-Shape" fill="#001442"></path>
                    </g>
                </g>
            </g>
        </g>
    </g>
</svg>